<svg viewBox="0 0 368 224" xmlns="http://www.w3.org/2000/svg" xmlns:xlink="http://www.w3.org/1999/xlink" stroke-linecap="square" stroke-miterlimit="10" fill="none" overflow="hidden"><clipPath id="p.0"><path d="M0 0 368 0 368 224 0 224 0 0Z"/></clipPath><g clip-path="url(#p.0)"><path d="M0 0 368 0 368 224 0 224Z" stroke="#FFFFFF" stroke-linecap="butt" fill="#FFFFFF" fill-rule="evenodd" fill-opacity="0"/><path d="M1.17815 150.803 25.3402 150.803 25.3402 223.294 1.17815 223.294Z" stroke="#FFFFFF" stroke-linecap="butt" fill="#FFFFFF" fill-rule="evenodd"/><path d="M1.17815 150.803 25.3402 150.803 25.3402 223.294 1.17815 223.294Z" stroke="#FFFFFF" stroke-linecap="butt" stroke-linejoin="round" fill="#FFFFFF" fill-rule="evenodd"/><path d="M25.3402 126.639 49.5022 126.639 49.5022 150.803 25.3402 150.803Z" stroke="#FFFFFF" stroke-linecap="butt" fill="#FFFFFF" fill-rule="evenodd"/><path d="M25.3402 126.639 49.5022 126.639 49.5022 150.803 25.3402 150.803Z" stroke="#FFFFFF" stroke-linecap="butt" stroke-linejoin="round" fill="#FFFFFF" fill-rule="evenodd"/><path d="M25.3402 126.639 13.2592 126.639 13.2592 126.639C10.0551 126.639 6.98223 127.912 4.7166 130.178 2.45097 132.443 1.17815 135.516 1.17815 138.72L1.17815 150.803 25.3402 150.803Z" stroke="#FFFFFF" stroke-linecap="butt" fill="#FFFFFF" fill-rule="evenodd"/><path d="M25.3402 126.639 13.2592 126.639 13.2592 126.639C10.0551 126.639 6.98223 127.912 4.7166 130.178 2.45097 132.443 1.17815 135.516 1.17815 138.72L1.17815 150.803 25.3402 150.803Z" stroke="#FFFFFF" stroke-linecap="butt" stroke-linejoin="round" fill="#FFFFFF" fill-rule="evenodd"/><path d="M49.5022 126.639 61.5832 126.639 61.5832 126.639C64.7873 126.639 67.8602 127.912 70.1258 130.178 72.3914 132.443 73.6642 135.516 73.6642 138.72L73.6642 150.803 49.5022 150.803Z" stroke="#FFFFFF" stroke-linecap="butt" fill="#FFFFFF" fill-rule="evenodd"/><path d="M49.5022 126.639 61.5832 126.639 61.5832 126.639C64.7873 126.639 67.8602 127.912 70.1258 130.178 72.3914 132.443 73.6642 135.516 73.6642 138.72L73.6642 150.803 49.5022 150.803Z" stroke="#FFFFFF" stroke-linecap="butt" stroke-linejoin="round" fill="#FFFFFF" fill-rule="evenodd"/><path d="M49.5022 150.803 73.6642 150.803 73.6642 174.967 49.5022 174.967Z" stroke="#FFFFFF" stroke-linecap="butt" fill="#FFFFFF" fill-rule="evenodd"/><path d="M49.5022 150.803 73.6642 150.803 73.6642 174.967 49.5022 174.967Z" stroke="#FFFFFF" stroke-linecap="butt" stroke-linejoin="round" fill="#FFFFFF" fill-rule="evenodd"/><path d="M49.5022 199.131 61.5832 199.131 61.5832 199.131C64.7873 199.131 67.8602 197.858 70.1258 195.592 72.3914 193.326 73.6642 190.254 73.6642 187.05L73.6642 174.967 49.5022 174.967Z" stroke="#FFFFFF" stroke-linecap="butt" fill="#FFFFFF" fill-rule="evenodd"/><path d="M49.5022 199.131 61.5832 199.131 61.5832 199.131C64.7873 199.131 67.8602 197.858 70.1258 195.592 72.3914 193.326 73.6642 190.254 73.6642 187.05L73.6642 174.967 49.5022 174.967Z" stroke="#FFFFFF" stroke-linecap="butt" stroke-linejoin="round" fill="#FFFFFF" fill-rule="evenodd"/><path d="M25.3402 174.967 49.5022 174.967 49.5022 199.131 25.3402 199.131Z" stroke="#FFFFFF" stroke-linecap="butt" fill="#FFFFFF" fill-rule="evenodd"/><path d="M25.3402 174.967 49.5022 174.967 49.5022 199.131 25.3402 199.131Z" stroke="#FFFFFF" stroke-linecap="butt" stroke-linejoin="round" fill="#FFFFFF" fill-rule="evenodd"/><path d="M1.17294 24.8691 25.335 24.8691 25.335 97.3602 1.17294 97.3602Z" stroke="#FFFFFF" stroke-linecap="butt" fill="#FFFFFF" fill-rule="evenodd"/><path d="M1.17294 24.8691 25.335 24.8691 25.335 97.3602 1.17294 97.3602Z" stroke="#FFFFFF" stroke-linecap="butt" stroke-linejoin="round" fill="#FFFFFF" fill-rule="evenodd"/><path d="M25.335 0.705353 49.497 0.705353 49.497 24.8691 25.335 24.8691Z" stroke="#FFFFFF" stroke-linecap="butt" fill="#FFFFFF" fill-rule="evenodd"/><path d="M25.335 0.705353 49.497 0.705353 49.497 24.8691 25.335 24.8691Z" stroke="#FFFFFF" stroke-linecap="butt" stroke-linejoin="round" fill="#FFFFFF" fill-rule="evenodd"/><path d="M25.335 0.705353 13.254 0.705353 13.254 0.705353C10.0499 0.705353 6.97701 1.97817 4.71138 4.2438 2.44576 6.50943 1.17294 9.58228 1.17294 12.7864L1.17294 24.8691 25.335 24.8691Z" stroke="#FFFFFF" stroke-linecap="butt" fill="#FFFFFF" fill-rule="evenodd"/><path d="M25.335 0.705353 13.254 0.705353 13.254 0.705353C10.0499 0.705353 6.97701 1.97817 4.71138 4.2438 2.44576 6.50943 1.17294 9.58228 1.17294 12.7864L1.17294 24.8691 25.335 24.8691Z" stroke="#FFFFFF" stroke-linecap="butt" stroke-linejoin="round" fill="#FFFFFF" fill-rule="evenodd"/><path d="M49.497 0.705353 61.578 0.705353 61.578 0.705353C64.7821 0.705353 67.8549 1.97817 70.1206 4.2438 72.3862 6.50943 73.659 9.58228 73.659 12.7864L73.659 24.8691 49.497 24.8691Z" stroke="#FFFFFF" stroke-linecap="butt" fill="#FFFFFF" fill-rule="evenodd"/><path d="M49.497 0.705353 61.578 0.705353 61.578 0.705353C64.7821 0.705353 67.8549 1.97817 70.1206 4.2438 72.3862 6.50943 73.659 9.58228 73.659 12.7864L73.659 24.8691 49.497 24.8691Z" stroke="#FFFFFF" stroke-linecap="butt" stroke-linejoin="round" fill="#FFFFFF" fill-rule="evenodd"/><path d="M49.497 24.8691 73.659 24.8691 73.659 97.3602 49.497 97.3602Z" stroke="#FFFFFF" stroke-linecap="butt" fill="#FFFFFF" fill-rule="evenodd"/><path d="M49.497 24.8691 73.659 24.8691 73.659 97.3602 49.497 97.3602Z" stroke="#FFFFFF" stroke-linecap="butt" stroke-linejoin="round" fill="#FFFFFF" fill-rule="evenodd"/><path d="M98.8942 24.8691 123.056 24.8691 123.056 97.3602 98.8942 97.3602Z" stroke="#FFFFFF" stroke-linecap="butt" fill="#FFFFFF" fill-rule="evenodd"/><path d="M98.8942 24.8691 123.056 24.8691 123.056 97.3602 98.8942 97.3602Z" stroke="#FFFFFF" stroke-linecap="butt" stroke-linejoin="round" fill="#FFFFFF" fill-rule="evenodd"/><path d="M123.056 0.705353 147.218 0.705353 147.218 24.8691 123.056 24.8691Z" stroke="#FFFFFF" stroke-linecap="butt" fill="#FFFFFF" fill-rule="evenodd"/><path d="M123.056 0.705353 147.218 0.705353 147.218 24.8691 123.056 24.8691Z" stroke="#FFFFFF" stroke-linecap="butt" stroke-linejoin="round" fill="#FFFFFF" fill-rule="evenodd"/><path d="M123.056 0.705353 110.975 0.705353 110.975 0.705353C107.771 0.705353 104.698 1.97817 102.433 4.2438 100.167 6.50943 98.8942 9.58228 98.8942 12.7864L98.8942 24.8691 123.056 24.8691Z" stroke="#FFFFFF" stroke-linecap="butt" fill="#FFFFFF" fill-rule="evenodd"/><path d="M123.056 0.705353 110.975 0.705353 110.975 0.705353C107.771 0.705353 104.698 1.97817 102.433 4.2438 100.167 6.50943 98.8942 9.58228 98.8942 12.7864L98.8942 24.8691 123.056 24.8691Z" stroke="#FFFFFF" stroke-linecap="butt" stroke-linejoin="round" fill="#FFFFFF" fill-rule="evenodd"/><path d="M147.218 0.705353 159.299 0.705353 159.299 0.705353C162.503 0.705353 165.576 1.97817 167.842 4.2438 170.107 6.50943 171.38 9.58228 171.38 12.7864L171.38 24.8691 147.218 24.8691Z" stroke="#FFFFFF" stroke-linecap="butt" fill="#FFFFFF" fill-rule="evenodd"/><path d="M147.218 0.705353 159.299 0.705353 159.299 0.705353C162.503 0.705353 165.576 1.97817 167.842 4.2438 170.107 6.50943 171.38 9.58228 171.38 12.7864L171.38 24.8691 147.218 24.8691Z" stroke="#FFFFFF" stroke-linecap="butt" stroke-linejoin="round" fill="#FFFFFF" fill-rule="evenodd"/><path d="M147.218 24.8691 171.38 24.8691 171.38 97.3602 147.218 97.3602Z" stroke="#FFFFFF" stroke-linecap="butt" fill="#FFFFFF" fill-rule="evenodd"/><path d="M147.218 24.8691 171.38 24.8691 171.38 97.3602 147.218 97.3602Z" stroke="#FFFFFF" stroke-linecap="butt" stroke-linejoin="round" fill="#FFFFFF" fill-rule="evenodd"/><path d="M123.056 49.0328 147.218 49.0328 147.218 73.1965 123.056 73.1965Z" stroke="#FFFFFF" stroke-linecap="butt" fill="#FFFFFF" fill-rule="evenodd"/><path d="M123.056 49.0328 147.218 49.0328 147.218 73.1965 123.056 73.1965Z" stroke="#FFFFFF" stroke-linecap="butt" stroke-linejoin="round" fill="#FFFFFF" fill-rule="evenodd"/><path d="M294.336 24.8691 318.498 24.8691 318.498 73.1965 294.336 73.1965Z" stroke="#FFFFFF" stroke-linecap="butt" fill="#FFFFFF" fill-rule="evenodd"/><path d="M294.336 24.8691 318.498 24.8691 318.498 73.1965 294.336 73.1965Z" stroke="#FFFFFF" stroke-linecap="butt" stroke-linejoin="round" fill="#FFFFFF" fill-rule="evenodd"/><path d="M318.498 0.705353 342.66 0.705353 342.66 24.8691 318.498 24.8691Z" stroke="#FFFFFF" stroke-linecap="butt" fill="#FFFFFF" fill-rule="evenodd"/><path d="M318.498 0.705353 342.66 0.705353 342.66 24.8691 318.498 24.8691Z" stroke="#FFFFFF" stroke-linecap="butt" stroke-linejoin="round" fill="#FFFFFF" fill-rule="evenodd"/><path d="M318.498 0.705353 306.417 0.705353 306.417 0.705353C303.213 0.705353 300.14 1.97817 297.874 4.2438 295.608 6.50943 294.336 9.58228 294.336 12.7864L294.336 24.8691 318.498 24.8691Z" stroke="#FFFFFF" stroke-linecap="butt" fill="#FFFFFF" fill-rule="evenodd"/><path d="M318.498 0.705353 306.417 0.705353 306.417 0.705353C303.213 0.705353 300.14 1.97817 297.874 4.2438 295.608 6.50943 294.336 9.58228 294.336 12.7864L294.336 24.8691 318.498 24.8691Z" stroke="#FFFFFF" stroke-linecap="butt" stroke-linejoin="round" fill="#FFFFFF" fill-rule="evenodd"/><path d="M342.66 0.705353 354.741 0.705353 354.741 0.705353C357.945 0.705353 361.018 1.97817 363.283 4.2438 365.549 6.50943 366.822 9.58228 366.822 12.7864L366.822 24.8691 342.66 24.8691Z" stroke="#FFFFFF" stroke-linecap="butt" fill="#FFFFFF" fill-rule="evenodd"/><path d="M342.66 0.705353 354.741 0.705353 354.741 0.705353C357.945 0.705353 361.018 1.97817 363.283 4.2438 365.549 6.50943 366.822 9.58228 366.822 12.7864L366.822 24.8691 342.66 24.8691Z" stroke="#FFFFFF" stroke-linecap="butt" stroke-linejoin="round" fill="#FFFFFF" fill-rule="evenodd"/><path d="M342.66 24.8691 366.822 24.8691 366.822 73.1965 342.66 73.1965Z" stroke="#FFFFFF" stroke-linecap="butt" fill="#FFFFFF" fill-rule="evenodd"/><path d="M342.66 24.8691 366.822 24.8691 366.822 73.1965 342.66 73.1965Z" stroke="#FFFFFF" stroke-linecap="butt" stroke-linejoin="round" fill="#FFFFFF" fill-rule="evenodd"/><path d="M342.66 97.3602 318.498 97.3602 318.498 73.1965 342.66 73.1965Z" stroke="#FFFFFF" stroke-linecap="butt" fill="#FFFFFF" fill-rule="evenodd"/><path d="M342.66 97.3602 318.498 97.3602 318.498 73.1965 342.66 73.1965Z" stroke="#FFFFFF" stroke-linecap="butt" stroke-linejoin="round" fill="#FFFFFF" fill-rule="evenodd"/><path d="M342.66 97.3602 354.741 97.3602 354.741 97.3602C357.945 97.3602 361.018 96.0874 363.283 93.8217 365.549 91.5561 366.822 88.4833 366.822 85.2792L366.822 73.1965 342.66 73.1965Z" stroke="#FFFFFF" stroke-linecap="butt" fill="#FFFFFF" fill-rule="evenodd"/><path d="M342.66 97.3602 354.741 97.3602 354.741 97.3602C357.945 97.3602 361.018 96.0874 363.283 93.8217 365.549 91.5561 366.822 88.4833 366.822 85.2792L366.822 73.1965 342.66 73.1965Z" stroke="#FFFFFF" stroke-linecap="butt" stroke-linejoin="round" fill="#FFFFFF" fill-rule="evenodd"/><path d="M318.498 97.3602 306.417 97.3602 306.417 97.3602C303.213 97.3602 300.14 96.0874 297.874 93.8217 295.608 91.5561 294.336 88.4833 294.336 85.2792L294.336 73.1965 318.498 73.1965Z" stroke="#FFFFFF" stroke-linecap="butt" fill="#FFFFFF" fill-rule="evenodd"/><path d="M318.498 97.3602 306.417 97.3602 306.417 97.3602C303.213 97.3602 300.14 96.0874 297.874 93.8217 295.608 91.5561 294.336 88.4833 294.336 85.2792L294.336 73.1965 318.498 73.1965Z" stroke="#FFFFFF" stroke-linecap="butt" stroke-linejoin="round" fill="#FFFFFF" fill-rule="evenodd"/><path d="M196.615 24.8691 220.777 24.8691 220.777 97.3602 196.615 97.3602Z" stroke="#FFFFFF" stroke-linecap="butt" fill="#FFFFFF" fill-rule="evenodd"/><path d="M196.615 24.8691 220.777 24.8691 220.777 97.3602 196.615 97.3602Z" stroke="#FFFFFF" stroke-linecap="butt" stroke-linejoin="round" fill="#FFFFFF" fill-rule="evenodd"/><path d="M220.777 0.705353 244.939 0.705353 244.939 24.8691 220.777 24.8691Z" stroke="#FFFFFF" stroke-linecap="butt" fill="#FFFFFF" fill-rule="evenodd"/><path d="M220.777 0.705353 244.939 0.705353 244.939 24.8691 220.777 24.8691Z" stroke="#FFFFFF" stroke-linecap="butt" stroke-linejoin="round" fill="#FFFFFF" fill-rule="evenodd"/><path d="M220.777 0.705353 208.696 0.705353 208.696 0.705353C205.492 0.705353 202.419 1.97817 200.153 4.2438 197.887 6.50943 196.615 9.58228 196.615 12.7864L196.615 24.8691 220.777 24.8691Z" stroke="#FFFFFF" stroke-linecap="butt" fill="#FFFFFF" fill-rule="evenodd"/><path d="M220.777 0.705353 208.696 0.705353 208.696 0.705353C205.492 0.705353 202.419 1.97817 200.153 4.2438 197.887 6.50943 196.615 9.58228 196.615 12.7864L196.615 24.8691 220.777 24.8691Z" stroke="#FFFFFF" stroke-linecap="butt" stroke-linejoin="round" fill="#FFFFFF" fill-rule="evenodd"/><path d="M244.939 0.705353 257.02 0.705353 257.02 0.705353C260.224 0.705353 263.297 1.97817 265.562 4.2438 267.828 6.50943 269.101 9.58228 269.101 12.7864L269.101 24.8691 244.939 24.8691Z" stroke="#FFFFFF" stroke-linecap="butt" fill="#FFFFFF" fill-rule="evenodd"/><path d="M244.939 0.705353 257.02 0.705353 257.02 0.705353C260.224 0.705353 263.297 1.97817 265.562 4.2438 267.828 6.50943 269.101 9.58228 269.101 12.7864L269.101 24.8691 244.939 24.8691Z" stroke="#FFFFFF" stroke-linecap="butt" stroke-linejoin="round" fill="#FFFFFF" fill-rule="evenodd"/><path d="M244.939 24.8691 269.101 24.8691 269.101 97.3602 244.939 97.3602Z" stroke="#FFFFFF" stroke-linecap="butt" fill="#FFFFFF" fill-rule="evenodd"/><path d="M244.939 24.8691 269.101 24.8691 269.101 97.3602 244.939 97.3602Z" stroke="#FFFFFF" stroke-linecap="butt" stroke-linejoin="round" fill="#FFFFFF" fill-rule="evenodd"/><path d="M98.8994 199.131 123.061 199.131 123.061 126.639 98.8994 126.639Z" stroke="#FFFFFF" stroke-linecap="butt" fill="#FFFFFF" fill-rule="evenodd"/><path d="M98.8994 199.131 123.061 199.131 123.061 126.639 98.8994 126.639Z" stroke="#FFFFFF" stroke-linecap="butt" stroke-linejoin="round" fill="#FFFFFF" fill-rule="evenodd"/><path d="M123.061 223.294 147.223 223.294 147.223 199.131 123.061 199.131Z" stroke="#FFFFFF" stroke-linecap="butt" fill="#FFFFFF" fill-rule="evenodd"/><path d="M123.061 223.294 147.223 223.294 147.223 199.131 123.061 199.131Z" stroke="#FFFFFF" stroke-linecap="butt" stroke-linejoin="round" fill="#FFFFFF" fill-rule="evenodd"/><path d="M123.061 223.294 110.98 223.294 110.98 223.294C107.776 223.294 104.703 222.021 102.438 219.756 100.172 217.49 98.8994 214.417 98.8994 211.213L98.8994 199.131 123.061 199.131Z" stroke="#FFFFFF" stroke-linecap="butt" fill="#FFFFFF" fill-rule="evenodd"/><path d="M123.061 223.294 110.98 223.294 110.98 223.294C107.776 223.294 104.703 222.021 102.438 219.756 100.172 217.49 98.8994 214.417 98.8994 211.213L98.8994 199.131 123.061 199.131Z" stroke="#FFFFFF" stroke-linecap="butt" stroke-linejoin="round" fill="#FFFFFF" fill-rule="evenodd"/><path d="M147.223 223.294 159.304 223.294 159.304 223.294C162.509 223.294 165.581 222.021 167.847 219.756 170.113 217.49 171.385 214.417 171.385 211.213L171.385 199.131 147.223 199.131Z" stroke="#FFFFFF" stroke-linecap="butt" fill="#FFFFFF" fill-rule="evenodd"/><path d="M147.223 223.294 159.304 223.294 159.304 223.294C162.509 223.294 165.581 222.021 167.847 219.756 170.113 217.49 171.385 214.417 171.385 211.213L171.385 199.131 147.223 199.131Z" stroke="#FFFFFF" stroke-linecap="butt" stroke-linejoin="round" fill="#FFFFFF" fill-rule="evenodd"/><path d="M196.62 150.803 220.782 150.803 220.782 223.294 196.62 223.294Z" stroke="#FFFFFF" stroke-linecap="butt" fill="#FFFFFF" fill-rule="evenodd"/><path d="M196.62 150.803 220.782 150.803 220.782 223.294 196.62 223.294Z" stroke="#FFFFFF" stroke-linecap="butt" stroke-linejoin="round" fill="#FFFFFF" fill-rule="evenodd"/><path d="M220.782 126.639 244.944 126.639 244.944 150.803 220.782 150.803Z" stroke="#FFFFFF" stroke-linecap="butt" fill="#FFFFFF" fill-rule="evenodd"/><path d="M220.782 126.639 244.944 126.639 244.944 150.803 220.782 150.803Z" stroke="#FFFFFF" stroke-linecap="butt" stroke-linejoin="round" fill="#FFFFFF" fill-rule="evenodd"/><path d="M220.782 126.639 208.701 126.639 208.701 126.639C205.497 126.639 202.424 127.912 200.158 130.178 197.893 132.443 196.62 135.516 196.62 138.72L196.62 150.803 220.782 150.803Z" stroke="#FFFFFF" stroke-linecap="butt" fill="#FFFFFF" fill-rule="evenodd"/><path d="M220.782 126.639 208.701 126.639 208.701 126.639C205.497 126.639 202.424 127.912 200.158 130.178 197.893 132.443 196.62 135.516 196.62 138.72L196.62 150.803 220.782 150.803Z" stroke="#FFFFFF" stroke-linecap="butt" stroke-linejoin="round" fill="#FFFFFF" fill-rule="evenodd"/><path d="M244.944 126.639 257.025 126.639 257.025 126.639C260.229 126.639 263.302 127.912 265.567 130.178 267.833 132.443 269.106 135.516 269.106 138.72L269.106 150.803 244.944 150.803Z" stroke="#FFFFFF" stroke-linecap="butt" fill="#FFFFFF" fill-rule="evenodd"/><path d="M244.944 126.639 257.025 126.639 257.025 126.639C260.229 126.639 263.302 127.912 265.567 130.178 267.833 132.443 269.106 135.516 269.106 138.72L269.106 150.803 244.944 150.803Z" stroke="#FFFFFF" stroke-linecap="butt" stroke-linejoin="round" fill="#FFFFFF" fill-rule="evenodd"/><path d="M244.944 150.803 269.106 150.803 269.106 223.294 244.944 223.294Z" stroke="#FFFFFF" stroke-linecap="butt" fill="#FFFFFF" fill-rule="evenodd"/><path d="M244.944 150.803 269.106 150.803 269.106 223.294 244.944 223.294Z" stroke="#FFFFFF" stroke-linecap="butt" stroke-linejoin="round" fill="#FFFFFF" fill-rule="evenodd"/><path d="M220.782 174.967 244.944 174.967 244.944 199.131 220.782 199.131Z" stroke="#FFFFFF" stroke-linecap="butt" fill="#FFFFFF" fill-rule="evenodd"/><path d="M220.782 174.967 244.944 174.967 244.944 199.131 220.782 199.131Z" stroke="#FFFFFF" stroke-linecap="butt" stroke-linejoin="round" fill="#FFFFFF" fill-rule="evenodd"/><path d="M294.341 126.639 318.503 126.639 318.503 174.967 294.341 174.967Z" stroke="#FFFFFF" stroke-linecap="butt" fill="#FFFFFF" fill-rule="evenodd"/><path d="M294.341 126.639 318.503 126.639 318.503 174.967 294.341 174.967Z" stroke="#FFFFFF" stroke-linecap="butt" stroke-linejoin="round" fill="#FFFFFF" fill-rule="evenodd"/><path d="M342.665 126.639 366.827 126.639 366.827 174.967 342.665 174.967Z" stroke="#FFFFFF" stroke-linecap="butt" fill="#FFFFFF" fill-rule="evenodd"/><path d="M342.665 126.639 366.827 126.639 366.827 174.967 342.665 174.967Z" stroke="#FFFFFF" stroke-linecap="butt" stroke-linejoin="round" fill="#FFFFFF" fill-rule="evenodd"/><path d="M318.503 199.131 342.665 199.131 342.665 223.294 318.503 223.294Z" stroke="#FFFFFF" stroke-linecap="butt" fill="#FFFFFF" fill-rule="evenodd"/><path d="M318.503 199.131 342.665 199.131 342.665 223.294 318.503 223.294Z" stroke="#FFFFFF" stroke-linecap="butt" stroke-linejoin="round" fill="#FFFFFF" fill-rule="evenodd"/><path d="M318.503 199.131 342.665 199.131 342.665 174.967 318.503 174.967Z" stroke="#FFFFFF" stroke-linecap="butt" fill="#FFFFFF" fill-rule="evenodd"/><path d="M318.503 199.131 342.665 199.131 342.665 174.967 318.503 174.967Z" stroke="#FFFFFF" stroke-linecap="butt" stroke-linejoin="round" fill="#FFFFFF" fill-rule="evenodd"/><path d="M318.503 199.131 306.422 199.131 306.422 199.131C303.218 199.131 300.145 197.858 297.879 195.592 295.614 193.326 294.341 190.254 294.341 187.05L294.341 174.967 318.503 174.967Z" stroke="#FFFFFF" stroke-linecap="butt" fill="#FFFFFF" fill-rule="evenodd"/><path d="M318.503 199.131 306.422 199.131 306.422 199.131C303.218 199.131 300.145 197.858 297.879 195.592 295.614 193.326 294.341 190.254 294.341 187.05L294.341 174.967 318.503 174.967Z" stroke="#FFFFFF" stroke-linecap="butt" stroke-linejoin="round" fill="#FFFFFF" fill-rule="evenodd"/><path d="M342.665 199.131 354.746 199.131 354.746 199.131C357.95 199.131 361.023 197.858 363.288 195.592 365.554 193.326 366.827 190.254 366.827 187.05L366.827 174.967 342.665 174.967Z" stroke="#FFFFFF" stroke-linecap="butt" fill="#FFFFFF" fill-rule="evenodd"/><path d="M342.665 199.131 354.746 199.131 354.746 199.131C357.95 199.131 361.023 197.858 363.288 195.592 365.554 193.326 366.827 190.254 366.827 187.05L366.827 174.967 342.665 174.967Z" stroke="#FFFFFF" stroke-linecap="butt" stroke-linejoin="round" fill="#FFFFFF" fill-rule="evenodd"/></g></svg>